<svg width="215.3" height="269.2" xmlns="http://www.w3.org/2000/svg">
 <g>
  <title>background</title>
  <rect x="-1" y="-1" width="217.3" height="271.2" id="canvas_background" fill="none"/>
 </g>

 <g>
  <title>Layer 1</title>
  <path stroke="#000" stroke-width="4.8" d="m3,161.5c0,27.4 11.25,54.6 30.62,74s46.62,30.6 73.98,30.6c27.4,0 54.6,-11.3 74,-30.6c19.4,-19.4 30.6,-46.6 30.6,-74l0,-158.5l-209.2,-0.025l0,158.525z" fill="#fff" id="svg_1"/>
  <path transform="rotate(100.9407730102539 128.6671142578125,-128.95509338378906) scale(1,-1) " stroke="#000" id="svg_2" d="m95.27562,103.67506c-2.96206,1.80281 -5.8045,8.53226 -8.47392,2.40756c-0.37346,-4.66223 6.03595,-6.89721 8.15017,-2.6635l0.23875,0.18874l0.085,0.06719l0,0l-0.00001,0.00001l0.00001,0zm1.76707,-11.91647c0.47501,6.34333 -5.34977,10.98208 -8.7159,15.8755c-1.27498,2.66406 -9.26706,9.51255 -8.55038,3.648c2.52613,-6.27134 7.72177,-11.06099 11.79256,-16.40463c1.41009,-1.58138 3.25412,-3.12402 5.47371,-3.11887l0.00001,0.00001l0,-0.00001zm-10.54844,14.60258c-6.88024,-5.29998 -13.76046,-10.59997 -20.6407,-15.89996c0.16386,-5.06968 6.70572,-7.59502 9.06268,-2.67695c5.34901,4.12045 10.69804,8.24092 16.04705,12.36138m0.33464,5.13577c30.49574,23.77056 62.19587,46.14532 95.7628,65.64102m-93.96046,-68.11365c29.31745,21.92787 58.86768,43.73443 90.77442,62.01713c1.67702,1.98449 11.88881,4.23145 5.55781,6.29188c-2.13558,0.40716 -4.51981,2.87074 -6.36935,0.91081c-32.43408,-19.63005 -63.70672,-41.06157 -93.66835,-64.12174" fill-opacity="null" stroke-opacity="null" stroke-width="1.5" fill="#fff"/>
  <rect fill="red" stroke="#000" stroke-width="1.5" stroke-opacity="null" fill-opacity="null" x="4.15002" y="96.02188" width="211" height="44" id="svg_7"/>
  <rect stroke="#000" id="svg_6" height="261" width="52" y="3.02188" x="83.15002" fill-opacity="null" stroke-opacity="null" fill="red"/>
  <path fill="purple" stroke="#000" stroke-width="1.5" stroke-opacity="null" fill-opacity="null" d="m32.97428,61.66967l22.91812,0l7.08188,-21.39015l7.08188,21.39015l22.91812,0l-18.54112,13.21969l7.08224,21.39015l-18.54113,-13.22005l-18.54112,13.22005l7.08224,-21.39015l-18.54112,-13.21969l0.00001,0z" id="svg_3"/>
  <path fill="purple" stroke="#000" stroke-width="1.5" stroke-opacity="null" fill-opacity="null" d="m123.97428,60.66967l22.91812,0l7.08188,-21.39015l7.08188,21.39015l22.91811,0l-18.54111,13.21969l7.08224,21.39016l-18.54112,-13.22005l-18.54113,13.22005l7.08225,-21.39016l-18.54112,-13.21969z" id="svg_4"/>
  <path fill="black" stroke-width="1.5" stroke-opacity="null" fill-opacity="null" d="m62.97428,139.42048l35.14112,0l10.85888,-35.14096l10.85888,35.14096l35.1411,0l-28.4297,21.71806l10.85944,35.14098l-28.42972,-21.71865l-28.42973,21.71865l10.85945,-35.14098l-28.42972,-21.71806z" id="svg_5" stroke="#000"/>
 </g>
</svg>